{
	"patcher" : 	{
		"fileversion" : 1,
		"appversion" : 		{
			"major" : 9,
			"minor" : 0,
			"revision" : 8,
			"architecture" : "x64",
			"modernui" : 1
		}
,
		"classnamespace" : "box",
		"rect" : [ 34.0, 76.0, 1196.0, 863.0 ],
		"gridsize" : [ 15.0, 15.0 ],
		"boxes" : [ 			{
				"box" : 				{
					"id" : "obj-50",
					"maxclass" : "comment",
					"numinlets" : 1,
					"numoutlets" : 0,
					"patching_rect" : [ 1188.095107793807983, 885.714188575744629, 48.0, 20.0 ],
					"text" : "OSC 2"
				}

			}
, 			{
				"box" : 				{
					"id" : "obj-49",
					"maxclass" : "comment",
					"numinlets" : 1,
					"numoutlets" : 0,
					"patching_rect" : [ 1185.714155673980713, 719.047540187835693, 48.0, 20.0 ],
					"text" : "OSC 1"
				}

			}
, 			{
				"box" : 				{
					"id" : "obj-47",
					"maxclass" : "comment",
					"numinlets" : 1,
					"numoutlets" : 0,
					"patching_rect" : [ 1597.618872404098511, 435.714237928390503, 59.0, 20.0 ],
					"text" : "FILTER"
				}

			}
, 			{
				"box" : 				{
					"id" : "obj-45",
					"maxclass" : "comment",
					"numinlets" : 1,
					"numoutlets" : 0,
					"patching_rect" : [ 1309.523665904998779, 469.04756760597229, 48.0, 20.0 ],
					"text" : "ADSR"
				}

			}
, 			{
				"box" : 				{
					"annotation" : "",
					"id" : "obj-41",
					"maxclass" : "live.dial",
					"numinlets" : 1,
					"numoutlets" : 2,
					"outlettype" : [ "", "float" ],
					"parameter_enable" : 1,
					"patching_rect" : [ 1373.809373140335083, 502.380897283554077, 44.0, 48.0 ],
					"prototypename" : "time",
					"saved_attribute_attributes" : 					{
						"textcolor" : 						{
							"expression" : ""
						}
,
						"valueof" : 						{
							"parameter_initial" : [ 0 ],
							"parameter_initial_enable" : 1,
							"parameter_linknames" : 1,
							"parameter_longname" : "live.dial[13]",
							"parameter_mmax" : 5000.0,
							"parameter_modmode" : 0,
							"parameter_shortname" : "Release",
							"parameter_steps" : 41,
							"parameter_type" : 0,
							"parameter_unitstyle" : 2
						}

					}
,
					"textcolor" : [ 0.101961, 0.121569, 0.172549, 1.0 ],
					"varname" : "live.dial[13]"
				}

			}
, 			{
				"box" : 				{
					"annotation" : "",
					"id" : "obj-40",
					"maxclass" : "live.dial",
					"numinlets" : 1,
					"numoutlets" : 2,
					"outlettype" : [ "", "float" ],
					"parameter_enable" : 1,
					"patching_rect" : [ 1283.333192586898804, 502.380897283554077, 44.0, 48.0 ],
					"prototypename" : "time",
					"saved_attribute_attributes" : 					{
						"textcolor" : 						{
							"expression" : ""
						}
,
						"valueof" : 						{
							"parameter_initial" : [ 0 ],
							"parameter_initial_enable" : 1,
							"parameter_linknames" : 1,
							"parameter_longname" : "live.dial[5]",
							"parameter_mmax" : 1000.0,
							"parameter_modmode" : 0,
							"parameter_shortname" : "Decay",
							"parameter_steps" : 41,
							"parameter_type" : 0,
							"parameter_unitstyle" : 2
						}

					}
,
					"textcolor" : [ 0.101961, 0.121569, 0.172549, 1.0 ],
					"varname" : "live.dial[5]"
				}

			}
, 			{
				"box" : 				{
					"id" : "obj-39",
					"maxclass" : "live.dial",
					"numinlets" : 1,
					"numoutlets" : 2,
					"outlettype" : [ "", "float" ],
					"parameter_enable" : 1,
					"patching_rect" : [ 1330.952234983444214, 502.380897283554077, 41.0, 48.0 ],
					"saved_attribute_attributes" : 					{
						"valueof" : 						{
							"parameter_longname" : "live.dial[11]",
							"parameter_mmax" : 1.0,
							"parameter_mmin" : 0.01,
							"parameter_modmode" : 3,
							"parameter_shortname" : "sustain",
							"parameter_type" : 0,
							"parameter_unitstyle" : 1
						}

					}
,
					"varname" : "live.dial[4]"
				}

			}
, 			{
				"box" : 				{
					"annotation" : "",
					"id" : "obj-38",
					"maxclass" : "live.dial",
					"numinlets" : 1,
					"numoutlets" : 2,
					"outlettype" : [ "", "float" ],
					"parameter_enable" : 1,
					"patching_rect" : [ 1240.476054430007935, 502.380897283554077, 44.0, 48.0 ],
					"prototypename" : "time",
					"saved_attribute_attributes" : 					{
						"textcolor" : 						{
							"expression" : ""
						}
,
						"valueof" : 						{
							"parameter_initial" : [ 0 ],
							"parameter_initial_enable" : 1,
							"parameter_linknames" : 1,
							"parameter_longname" : "live.dial",
							"parameter_mmax" : 1000.0,
							"parameter_modmode" : 0,
							"parameter_shortname" : "Time",
							"parameter_steps" : 41,
							"parameter_type" : 0,
							"parameter_unitstyle" : 2
						}

					}
,
					"textcolor" : [ 0.101961, 0.121569, 0.172549, 1.0 ],
					"varname" : "live.dial"
				}

			}
, 			{
				"box" : 				{
					"attr" : "release",
					"id" : "obj-36",
					"maxclass" : "attrui",
					"numinlets" : 1,
					"numoutlets" : 1,
					"outlettype" : [ "" ],
					"parameter_enable" : 0,
					"patching_rect" : [ 1223.809389591217041, 671.428497791290283, 211.0, 22.0 ]
				}

			}
, 			{
				"box" : 				{
					"attr" : "sustain",
					"id" : "obj-35",
					"maxclass" : "attrui",
					"numinlets" : 1,
					"numoutlets" : 1,
					"outlettype" : [ "" ],
					"parameter_enable" : 0,
					"patching_rect" : [ 1223.809389591217041, 638.095168113708496, 211.0, 22.0 ]
				}

			}
, 			{
				"box" : 				{
					"attr" : "decay",
					"id" : "obj-34",
					"maxclass" : "attrui",
					"numinlets" : 1,
					"numoutlets" : 1,
					"outlettype" : [ "" ],
					"parameter_enable" : 0,
					"patching_rect" : [ 1223.809389591217041, 607.142790555953979, 211.0, 22.0 ]
				}

			}
, 			{
				"box" : 				{
					"attr" : "attack",
					"id" : "obj-33",
					"maxclass" : "attrui",
					"numinlets" : 1,
					"numoutlets" : 1,
					"outlettype" : [ "" ],
					"parameter_enable" : 0,
					"patching_rect" : [ 1223.809389591217041, 578.571365118026733, 211.0, 22.0 ]
				}

			}
, 			{
				"box" : 				{
					"id" : "obj-30",
					"maxclass" : "live.dial",
					"numinlets" : 1,
					"numoutlets" : 2,
					"outlettype" : [ "", "float" ],
					"parameter_enable" : 1,
					"patching_rect" : [ 1178.571299314498901, 909.523709774017334, 64.0, 48.0 ],
					"saved_attribute_attributes" : 					{
						"valueof" : 						{
							"parameter_longname" : "live.dial[10]",
							"parameter_mmax" : 0.9,
							"parameter_mmin" : 0.01,
							"parameter_modmode" : 3,
							"parameter_shortname" : "Pulsewidth",
							"parameter_type" : 0,
							"parameter_unitstyle" : 1
						}

					}
,
					"varname" : "live.dial[3]"
				}

			}
, 			{
				"box" : 				{
					"id" : "obj-31",
					"maxclass" : "live.dial",
					"numinlets" : 1,
					"numoutlets" : 2,
					"outlettype" : [ "", "float" ],
					"parameter_enable" : 1,
					"patching_rect" : [ 1190.476059913635254, 961.904656410217285, 41.0, 48.0 ],
					"saved_attribute_attributes" : 					{
						"valueof" : 						{
							"parameter_longname" : "gain",
							"parameter_mmax" : 0.0,
							"parameter_mmin" : -72.0,
							"parameter_modmode" : 3,
							"parameter_shortname" : "Gain",
							"parameter_type" : 0,
							"parameter_unitstyle" : 0
						}

					}
,
					"varname" : "gain"
				}

			}
, 			{
				"box" : 				{
					"id" : "obj-29",
					"maxclass" : "live.dial",
					"numinlets" : 1,
					"numoutlets" : 2,
					"outlettype" : [ "", "float" ],
					"parameter_enable" : 1,
					"patching_rect" : [ 1190.476059913635254, 747.618965625762939, 41.0, 48.0 ],
					"saved_attribute_attributes" : 					{
						"valueof" : 						{
							"parameter_longname" : "live.dial[9]",
							"parameter_mmax" : 0.9,
							"parameter_mmin" : 0.01,
							"parameter_modmode" : 3,
							"parameter_shortname" : "Pulsewidth",
							"parameter_type" : 0,
							"parameter_unitstyle" : 1
						}

					}
,
					"varname" : "live.dial[1]"
				}

			}
, 			{
				"box" : 				{
					"annotation" : "",
					"id" : "obj-27",
					"maxclass" : "live.dial",
					"numinlets" : 1,
					"numoutlets" : 2,
					"outlettype" : [ "", "float" ],
					"parameter_enable" : 1,
					"patching_rect" : [ 1645.237914800643921, 473.809471845626831, 44.0, 48.0 ],
					"prototypename" : "Q",
					"saved_attribute_attributes" : 					{
						"valueof" : 						{
							"parameter_exponent" : 3.5,
							"parameter_initial" : [ 1.0 ],
							"parameter_initial_enable" : 1,
							"parameter_linknames" : 1,
							"parameter_longname" : "live.dial[8]",
							"parameter_mmax" : 10.0,
							"parameter_mmin" : 0.1,
							"parameter_modmode" : 0,
							"parameter_shortname" : "Q",
							"parameter_type" : 0,
							"parameter_unitstyle" : 1
						}

					}
,
					"varname" : "live.dial[8]"
				}

			}
, 			{
				"box" : 				{
					"annotation" : "",
					"id" : "obj-23",
					"maxclass" : "live.dial",
					"numinlets" : 1,
					"numoutlets" : 2,
					"outlettype" : [ "", "float" ],
					"parameter_enable" : 1,
					"patching_rect" : [ 1597.618872404098511, 473.809471845626831, 44.0, 48.0 ],
					"prototypename" : "freq",
					"saved_attribute_attributes" : 					{
						"valueof" : 						{
							"parameter_exponent" : 3.333333,
							"parameter_initial" : [ 0 ],
							"parameter_initial_enable" : 1,
							"parameter_linknames" : 1,
							"parameter_longname" : "live.dial[6]",
							"parameter_mmax" : 20000.0,
							"parameter_modmode" : 0,
							"parameter_shortname" : "Freq",
							"parameter_type" : 0,
							"parameter_unitstyle" : 3
						}

					}
,
					"varname" : "live.dial[6]"
				}

			}
, 			{
				"box" : 				{
					"id" : "obj-19",
					"maxclass" : "live.dial",
					"numinlets" : 1,
					"numoutlets" : 2,
					"outlettype" : [ "", "float" ],
					"parameter_enable" : 1,
					"patching_rect" : [ 1190.476059913635254, 811.904672861099243, 41.0, 48.0 ],
					"saved_attribute_attributes" : 					{
						"valueof" : 						{
							"parameter_longname" : "live.dial[2]",
							"parameter_mmax" : 0.0,
							"parameter_mmin" : -72.0,
							"parameter_modmode" : 3,
							"parameter_shortname" : "Gain",
							"parameter_type" : 0,
							"parameter_unitstyle" : 0
						}

					}
,
					"varname" : "live.dial[2]"
				}

			}
, 			{
				"box" : 				{
					"attr" : "res",
					"id" : "obj-14",
					"maxclass" : "attrui",
					"numinlets" : 1,
					"numoutlets" : 1,
					"outlettype" : [ "" ],
					"parameter_enable" : 0,
					"patching_rect" : [ 1597.618872404098511, 566.666604518890381, 150.0, 22.0 ]
				}

			}
, 			{
				"box" : 				{
					"attr" : "cutoff",
					"id" : "obj-12",
					"maxclass" : "attrui",
					"numinlets" : 1,
					"numoutlets" : 1,
					"outlettype" : [ "" ],
					"parameter_enable" : 0,
					"patching_rect" : [ 1597.618872404098511, 530.952322721481323, 150.0, 22.0 ]
				}

			}
, 			{
				"box" : 				{
					"attr" : "gain2",
					"id" : "obj-9",
					"maxclass" : "attrui",
					"numinlets" : 1,
					"numoutlets" : 1,
					"outlettype" : [ "" ],
					"parameter_enable" : 0,
					"patching_rect" : [ 1254.761767148971558, 969.047512769699097, 150.0, 22.0 ]
				}

			}
, 			{
				"box" : 				{
					"attr" : "pulsewidth2",
					"id" : "obj-10",
					"maxclass" : "attrui",
					"numinlets" : 1,
					"numoutlets" : 1,
					"outlettype" : [ "" ],
					"parameter_enable" : 0,
					"patching_rect" : [ 1254.761767148971558, 930.952278852462769, 163.0, 22.0 ]
				}

			}
, 			{
				"box" : 				{
					"attr" : "wave2",
					"id" : "obj-11",
					"maxclass" : "attrui",
					"numinlets" : 1,
					"numoutlets" : 1,
					"outlettype" : [ "" ],
					"parameter_enable" : 0,
					"patching_rect" : [ 1254.761767148971558, 895.237997055053711, 150.0, 22.0 ]
				}

			}
, 			{
				"box" : 				{
					"attr" : "gain1",
					"id" : "obj-8",
					"maxclass" : "attrui",
					"numinlets" : 1,
					"numoutlets" : 1,
					"outlettype" : [ "" ],
					"parameter_enable" : 0,
					"patching_rect" : [ 1254.761767148971558, 821.428481340408325, 150.0, 22.0 ]
				}

			}
, 			{
				"box" : 				{
					"attr" : "pulsewidth1",
					"id" : "obj-2",
					"maxclass" : "attrui",
					"numinlets" : 1,
					"numoutlets" : 1,
					"outlettype" : [ "" ],
					"parameter_enable" : 0,
					"patching_rect" : [ 1254.761767148971558, 785.714199542999268, 163.0, 22.0 ]
				}

			}
, 			{
				"box" : 				{
					"attr" : "wave1",
					"id" : "obj-4",
					"maxclass" : "attrui",
					"numinlets" : 1,
					"numoutlets" : 1,
					"outlettype" : [ "" ],
					"parameter_enable" : 0,
					"patching_rect" : [ 1254.761767148971558, 747.618965625762939, 150.0, 22.0 ]
				}

			}
, 			{
				"box" : 				{
					"autosave" : 1,
					"id" : "obj-3",
					"inletInfo" : 					{
						"IOInfo" : [ 							{
								"type" : "midi",
								"index" : -1,
								"tag" : "",
								"comment" : ""
							}
 ]
					}
,
					"maxclass" : "newobj",
					"numinlets" : 2,
					"numoutlets" : 3,
					"outletInfo" : 					{
						"IOInfo" : [ 							{
								"type" : "signal",
								"index" : 1,
								"tag" : "out1",
								"comment" : ""
							}
, 							{
								"type" : "midi",
								"index" : -1,
								"tag" : "",
								"comment" : ""
							}
 ]
					}
,
					"outlettype" : [ "signal", "int", "list" ],
					"patching_rect" : [ 1949.999786138534546, 733.333252906799316, 152.0, 22.0 ],
					"rnboattrcache" : 					{
						"pulsewidth1" : 						{
							"label" : "pulsewidth1",
							"isEnum" : 0,
							"parsestring" : ""
						}
,
						"gain1" : 						{
							"label" : "gain1",
							"isEnum" : 0,
							"parsestring" : ""
						}
,
						"pulsewidth2" : 						{
							"label" : "pulsewidth2",
							"isEnum" : 0,
							"parsestring" : ""
						}
,
						"gain2" : 						{
							"label" : "gain2",
							"isEnum" : 0,
							"parsestring" : ""
						}
,
						"cutoff" : 						{
							"label" : "cutoff",
							"isEnum" : 0,
							"parsestring" : ""
						}
,
						"res" : 						{
							"label" : "res",
							"isEnum" : 0,
							"parsestring" : ""
						}
,
						"attack" : 						{
							"label" : "attack",
							"isEnum" : 0,
							"parsestring" : ""
						}
,
						"decay" : 						{
							"label" : "decay",
							"isEnum" : 0,
							"parsestring" : ""
						}
,
						"sustain" : 						{
							"label" : "sustain",
							"isEnum" : 0,
							"parsestring" : ""
						}
,
						"release" : 						{
							"label" : "release",
							"isEnum" : 0,
							"parsestring" : ""
						}
,
						"gigaverb/damping" : 						{
							"label" : "gigaverb/damping",
							"isEnum" : 0,
							"parsestring" : ""
						}
,
						"gigaverb/roomsize" : 						{
							"label" : "gigaverb/roomsize",
							"isEnum" : 0,
							"parsestring" : ""
						}
,
						"gigaverb/bandwidth" : 						{
							"label" : "gigaverb/bandwidth",
							"isEnum" : 0,
							"parsestring" : ""
						}
,
						"gigaverb/revtime" : 						{
							"label" : "gigaverb/revtime",
							"isEnum" : 0,
							"parsestring" : ""
						}
,
						"gigaverb/spread" : 						{
							"label" : "gigaverb/spread",
							"isEnum" : 0,
							"parsestring" : ""
						}
,
						"gigaverb/tail" : 						{
							"label" : "gigaverb/tail",
							"isEnum" : 0,
							"parsestring" : ""
						}
,
						"gigaverb/dry" : 						{
							"label" : "gigaverb/dry",
							"isEnum" : 0,
							"parsestring" : ""
						}
,
						"gigaverb/early" : 						{
							"label" : "gigaverb/early",
							"isEnum" : 0,
							"parsestring" : ""
						}
,
						"wave1" : 						{
							"label" : "wave1",
							"isEnum" : 1,
							"parsestring" : "\"sine\" \"saw\" \"tri\" \"rect\""
						}
,
						"wave2" : 						{
							"label" : "wave2",
							"isEnum" : 1,
							"parsestring" : "\"sine\" \"saw\" \"tri\" \"rect\""
						}

					}
,
					"rnboversion" : "1.3.4",
					"saved_attribute_attributes" : 					{
						"valueof" : 						{
							"parameter_invisible" : 1,
							"parameter_longname" : "rnbo~",
							"parameter_modmode" : 0,
							"parameter_shortname" : "rnbo~",
							"parameter_type" : 3
						}

					}
,
					"saved_object_attributes" : 					{
						"optimization" : "O1",
						"parameter_enable" : 1,
						"polyphony" : 4,
						"uuid" : "e7c1ca4b-c59d-11f0-8a4b-342eb7dfe72d"
					}
,
					"snapshot" : 					{
						"filetype" : "C74Snapshot",
						"version" : 2,
						"minorversion" : 0,
						"name" : "snapshotlist",
						"origin" : "rnbo~",
						"type" : "list",
						"subtype" : "Undefined",
						"embed" : 1,
						"snapshot" : 						{
							"decay" : 							{
								"value" : 550.0
							}
,
							"gain1" : 							{
								"value" : -6.0
							}
,
							"__presetid" : "synth",
							"attack" : 							{
								"value" : 0.0
							}
,
							"wave1" : 							{
								"value" : 1.0
							}
,
							"pulsewidth1" : 							{
								"value" : 0.9
							}
,
							"cutoff" : 							{
								"value" : 5887.892689093964691
							}
,
							"sustain" : 							{
								"value" : 0.384173228346457
							}
,
							"release" : 							{
								"value" : 0.0
							}
,
							"wave2" : 							{
								"value" : 2.0
							}
,
							"res" : 							{
								"value" : 10.0
							}
,
							"pulsewidth2" : 							{
								"value" : 0.9
							}
,
							"gain2" : 							{
								"value" : -6.0
							}
,
							"gigaverb/damping" : 							{
								"value" : 1.0
							}
,
							"gigaverb/roomsize" : 							{
								"value" : 75.0
							}
,
							"gigaverb/bandwidth" : 							{
								"value" : 0.6
							}
,
							"gigaverb/revtime" : 							{
								"value" : 1.0
							}
,
							"gigaverb/spread" : 							{
								"value" : 23.0
							}
,
							"gigaverb/tail" : 							{
								"value" : 0.25
							}
,
							"gigaverb/dry" : 							{
								"value" : 0.0
							}
,
							"gigaverb/early" : 							{
								"value" : 1.0
							}
,
							"__sps" : 							{
								"poly" : [ 									{
										"__sps" : 										{
											"osc1" : 											{

											}
,
											"envelope_gen" : 											{

											}
,
											"osc2" : 											{

											}
,
											"lowpass_rnbo" : 											{

											}

										}

									}
, 									{
										"__sps" : 										{
											"osc1" : 											{

											}
,
											"envelope_gen" : 											{

											}
,
											"osc2" : 											{

											}
,
											"lowpass_rnbo" : 											{

											}

										}

									}
, 									{
										"__sps" : 										{
											"osc1" : 											{

											}
,
											"envelope_gen" : 											{

											}
,
											"osc2" : 											{

											}
,
											"lowpass_rnbo" : 											{

											}

										}

									}
, 									{
										"__sps" : 										{
											"osc1" : 											{

											}
,
											"envelope_gen" : 											{

											}
,
											"osc2" : 											{

											}
,
											"lowpass_rnbo" : 											{

											}

										}

									}
 ]
							}

						}
,
						"snapshotlist" : 						{
							"current_snapshot" : 0,
							"entries" : [ 								{
									"filetype" : "C74Snapshot",
									"version" : 2,
									"minorversion" : 0,
									"name" : "synth",
									"origin" : "synth",
									"type" : "rnbo",
									"subtype" : "",
									"embed" : 0,
									"snapshot" : 									{
										"decay" : 										{
											"value" : 550.0
										}
,
										"gain1" : 										{
											"value" : -6.0
										}
,
										"__presetid" : "synth",
										"attack" : 										{
											"value" : 0.0
										}
,
										"wave1" : 										{
											"value" : 1.0
										}
,
										"pulsewidth1" : 										{
											"value" : 0.9
										}
,
										"cutoff" : 										{
											"value" : 5887.892689093964691
										}
,
										"sustain" : 										{
											"value" : 0.384173228346457
										}
,
										"release" : 										{
											"value" : 0.0
										}
,
										"wave2" : 										{
											"value" : 2.0
										}
,
										"res" : 										{
											"value" : 10.0
										}
,
										"pulsewidth2" : 										{
											"value" : 0.9
										}
,
										"gain2" : 										{
											"value" : -6.0
										}
,
										"gigaverb/damping" : 										{
											"value" : 1.0
										}
,
										"gigaverb/roomsize" : 										{
											"value" : 75.0
										}
,
										"gigaverb/bandwidth" : 										{
											"value" : 0.6
										}
,
										"gigaverb/revtime" : 										{
											"value" : 1.0
										}
,
										"gigaverb/spread" : 										{
											"value" : 23.0
										}
,
										"gigaverb/tail" : 										{
											"value" : 0.25
										}
,
										"gigaverb/dry" : 										{
											"value" : 0.0
										}
,
										"gigaverb/early" : 										{
											"value" : 1.0
										}
,
										"__sps" : 										{
											"poly" : [ 												{
													"__sps" : 													{
														"osc1" : 														{

														}
,
														"envelope_gen" : 														{

														}
,
														"osc2" : 														{

														}
,
														"lowpass_rnbo" : 														{

														}

													}

												}
, 												{
													"__sps" : 													{
														"osc1" : 														{

														}
,
														"envelope_gen" : 														{

														}
,
														"osc2" : 														{

														}
,
														"lowpass_rnbo" : 														{

														}

													}

												}
, 												{
													"__sps" : 													{
														"osc1" : 														{

														}
,
														"envelope_gen" : 														{

														}
,
														"osc2" : 														{

														}
,
														"lowpass_rnbo" : 														{

														}

													}

												}
, 												{
													"__sps" : 													{
														"osc1" : 														{

														}
,
														"envelope_gen" : 														{

														}
,
														"osc2" : 														{

														}
,
														"lowpass_rnbo" : 														{

														}

													}

												}
 ]
										}

									}
,
									"fileref" : 									{
										"name" : "synth",
										"filename" : "synth.maxsnap",
										"filepath" : "~/Documents/Max 9/Snapshots",
										"filepos" : -1,
										"snapshotfileid" : "c25ad714c171b3cdf631c04f9e92d484"
									}

								}
 ]
						}

					}
,
					"text" : "rnbo~ synth @polyphony 4",
					"varname" : "rnbo~"
				}

			}
, 			{
				"box" : 				{
					"id" : "obj-25",
					"maxclass" : "newobj",
					"numinlets" : 1,
					"numoutlets" : 1,
					"outlettype" : [ "" ],
					"patching_rect" : [ 2099.999769687652588, 992.857033967971802, 70.0, 22.0 ],
					"text" : "loadmess 3"
				}

			}
, 			{
				"box" : 				{
					"fontname" : "Arial",
					"fontsize" : 12.0,
					"id" : "obj-55",
					"maxclass" : "newobj",
					"numinlets" : 1,
					"numoutlets" : 1,
					"outlettype" : [ "int" ],
					"patching_rect" : [ 921.428470373153687, 204.761882305145264, 43.0, 22.0 ],
					"text" : "midiin"
				}

			}
, 			{
				"box" : 				{
					"fontname" : "Arial",
					"fontsize" : 12.0,
					"id" : "obj-56",
					"maxclass" : "newobj",
					"numinlets" : 1,
					"numoutlets" : 8,
					"outlettype" : [ "", "", "", "int", "int", "", "int", "" ],
					"patching_rect" : [ 921.428470373153687, 235.71425986289978, 110.0, 22.0 ],
					"text" : "midiparse"
				}

			}
, 			{
				"box" : 				{
					"fontface" : 0,
					"fontname" : "Arial",
					"fontsize" : 12.0,
					"id" : "obj-409",
					"maxclass" : "newobj",
					"numinlets" : 2,
					"numoutlets" : 1,
					"outlettype" : [ "" ],
					"patching_rect" : [ 869.047523736953735, 130.952366590499878, 54.0, 22.0 ],
					"text" : "midiinfo"
				}

			}
, 			{
				"box" : 				{
					"allowdrag" : 0,
					"fontface" : 0,
					"fontname" : "Arial",
					"fontsize" : 12.0,
					"id" : "obj-410",
					"items" : [ "StudioRack", ",", "SG Device I/O" ],
					"maxclass" : "umenu",
					"numinlets" : 1,
					"numoutlets" : 3,
					"outlettype" : [ "int", "", "" ],
					"parameter_enable" : 0,
					"patching_rect" : [ 869.047523736953735, 159.523792028427124, 125.0, 22.0 ]
				}

			}
, 			{
				"box" : 				{
					"fontface" : 0,
					"fontname" : "Arial",
					"fontsize" : 12.0,
					"id" : "obj-411",
					"maxclass" : "newobj",
					"numinlets" : 1,
					"numoutlets" : 1,
					"outlettype" : [ "" ],
					"patching_rect" : [ 904.761805534362793, 102.380941152572632, 74.0, 22.0 ],
					"text" : "loadmess 0"
				}

			}
, 			{
				"box" : 				{
					"fontname" : "Arial ",
					"fontsize" : 12.0,
					"id" : "obj-26",
					"maxclass" : "live.tab",
					"num_lines_patching" : 1,
					"num_lines_presentation" : 1,
					"numinlets" : 1,
					"numoutlets" : 3,
					"outlettype" : [ "", "", "float" ],
					"parameter_enable" : 1,
					"patching_rect" : [ 2099.999769687652588, 1040.476076364517212, 187.5, 20.0 ],
					"saved_attribute_attributes" : 					{
						"valueof" : 						{
							"parameter_enum" : [ "0dB", "-6dB", "-12dB", "-18dB", "-infdB" ],
							"parameter_initial" : [ 3 ],
							"parameter_initial_enable" : 1,
							"parameter_linknames" : 1,
							"parameter_longname" : "GainPresets",
							"parameter_mmax" : 4,
							"parameter_modmode" : 0,
							"parameter_shortname" : "GainPresets",
							"parameter_type" : 2,
							"parameter_unitstyle" : 9
						}

					}
,
					"varname" : "GainPresets"
				}

			}
, 			{
				"box" : 				{
					"fontname" : "Arial ",
					"fontsize" : 12.0,
					"id" : "obj-32",
					"maxclass" : "newobj",
					"numinlets" : 1,
					"numoutlets" : 1,
					"outlettype" : [ "" ],
					"patcher" : 					{
						"fileversion" : 1,
						"appversion" : 						{
							"major" : 9,
							"minor" : 0,
							"revision" : 8,
							"architecture" : "x64",
							"modernui" : 1
						}
,
						"classnamespace" : "box",
						"rect" : [ 59.0, 104.0, 640.0, 480.0 ],
						"gridsize" : [ 15.0, 15.0 ],
						"boxes" : [ 							{
								"box" : 								{
									"id" : "obj-3",
									"maxclass" : "message",
									"numinlets" : 2,
									"numoutlets" : 1,
									"outlettype" : [ "" ],
									"patching_rect" : [ 212.0, 141.5, 30.0, 22.0 ],
									"style" : "Meta",
									"text" : "-80."
								}

							}
, 							{
								"box" : 								{
									"id" : "obj-2",
									"maxclass" : "message",
									"numinlets" : 2,
									"numoutlets" : 1,
									"outlettype" : [ "" ],
									"patching_rect" : [ 171.5, 141.5, 29.5, 22.0 ],
									"style" : "Meta",
									"text" : "-18."
								}

							}
, 							{
								"box" : 								{
									"id" : "obj-1",
									"maxclass" : "message",
									"numinlets" : 2,
									"numoutlets" : 1,
									"outlettype" : [ "" ],
									"patching_rect" : [ 131.5, 141.5, 29.5, 22.0 ],
									"style" : "Meta",
									"text" : "-12."
								}

							}
, 							{
								"box" : 								{
									"id" : "obj-27",
									"maxclass" : "newobj",
									"numinlets" : 6,
									"numoutlets" : 6,
									"outlettype" : [ "bang", "bang", "bang", "bang", "bang", "" ],
									"patching_rect" : [ 50.0, 100.0, 221.5, 22.0 ],
									"style" : "Meta",
									"text" : "sel 0 1 2 3 4"
								}

							}
, 							{
								"box" : 								{
									"id" : "obj-34",
									"maxclass" : "message",
									"numinlets" : 2,
									"numoutlets" : 1,
									"outlettype" : [ "" ],
									"patching_rect" : [ 50.0, 141.5, 30.0, 22.0 ],
									"style" : "Meta",
									"text" : "0."
								}

							}
, 							{
								"box" : 								{
									"id" : "obj-32",
									"maxclass" : "message",
									"numinlets" : 2,
									"numoutlets" : 1,
									"outlettype" : [ "" ],
									"patching_rect" : [ 90.5, 141.5, 29.5, 22.0 ],
									"style" : "Meta",
									"text" : "-6."
								}

							}
, 							{
								"box" : 								{
									"comment" : "",
									"id" : "obj-30",
									"index" : 1,
									"maxclass" : "inlet",
									"numinlets" : 0,
									"numoutlets" : 1,
									"outlettype" : [ "" ],
									"patching_rect" : [ 50.0, 40.0, 30.0, 30.0 ]
								}

							}
, 							{
								"box" : 								{
									"comment" : "",
									"id" : "obj-31",
									"index" : 1,
									"maxclass" : "outlet",
									"numinlets" : 1,
									"numoutlets" : 0,
									"patching_rect" : [ 64.25, 221.5, 30.0, 30.0 ]
								}

							}
 ],
						"lines" : [ 							{
								"patchline" : 								{
									"destination" : [ "obj-31", 0 ],
									"source" : [ "obj-1", 0 ]
								}

							}
, 							{
								"patchline" : 								{
									"destination" : [ "obj-31", 0 ],
									"source" : [ "obj-2", 0 ]
								}

							}
, 							{
								"patchline" : 								{
									"destination" : [ "obj-1", 0 ],
									"source" : [ "obj-27", 2 ]
								}

							}
, 							{
								"patchline" : 								{
									"destination" : [ "obj-2", 0 ],
									"source" : [ "obj-27", 3 ]
								}

							}
, 							{
								"patchline" : 								{
									"destination" : [ "obj-3", 0 ],
									"source" : [ "obj-27", 4 ]
								}

							}
, 							{
								"patchline" : 								{
									"destination" : [ "obj-32", 0 ],
									"source" : [ "obj-27", 1 ]
								}

							}
, 							{
								"patchline" : 								{
									"destination" : [ "obj-34", 0 ],
									"source" : [ "obj-27", 0 ]
								}

							}
, 							{
								"patchline" : 								{
									"destination" : [ "obj-31", 0 ],
									"source" : [ "obj-3", 0 ]
								}

							}
, 							{
								"patchline" : 								{
									"destination" : [ "obj-27", 0 ],
									"source" : [ "obj-30", 0 ]
								}

							}
, 							{
								"patchline" : 								{
									"destination" : [ "obj-31", 0 ],
									"source" : [ "obj-32", 0 ]
								}

							}
, 							{
								"patchline" : 								{
									"destination" : [ "obj-31", 0 ],
									"source" : [ "obj-34", 0 ]
								}

							}
 ]
					}
,
					"patching_rect" : [ 2099.999769687652588, 1076.19035816192627, 85.0, 22.0 ],
					"text" : "p GainPresets"
				}

			}
, 			{
				"box" : 				{
					"id" : "obj-7",
					"maxclass" : "kslider",
					"mode" : 2,
					"numinlets" : 2,
					"numoutlets" : 2,
					"outlettype" : [ "int", "int" ],
					"parameter_enable" : 0,
					"patching_rect" : [ 1199.999868392944336, 385.714243412017822, 336.0, 53.0 ]
				}

			}
, 			{
				"box" : 				{
					"id" : "obj-18",
					"maxclass" : "newobj",
					"numinlets" : 2,
					"numoutlets" : 1,
					"outlettype" : [ "" ],
					"patching_rect" : [ 1040.476076364517212, 123.809510231018066, 60.0, 22.0 ],
					"text" : "pack 0 0"
				}

			}
, 			{
				"box" : 				{
					"id" : "obj-1",
					"maxclass" : "newobj",
					"numinlets" : 7,
					"numoutlets" : 2,
					"outlettype" : [ "int", "" ],
					"patching_rect" : [ 1045.237980604171753, 209.523786544799805, 82.0, 22.0 ],
					"text" : "midiformat"
				}

			}
, 			{
				"box" : 				{
					"id" : "obj-6",
					"maxclass" : "ezdac~",
					"numinlets" : 2,
					"numoutlets" : 0,
					"patching_rect" : [ 1921.4283607006073, 1083.333214521408081, 45.0, 45.0 ]
				}

			}
, 			{
				"box" : 				{
					"annotation" : "",
					"clip_size" : 1,
					"display_range" : [ -70.0, 30.0 ],
					"id" : "obj-5",
					"lastchannelcount" : 0,
					"maxclass" : "live.gain~",
					"numinlets" : 2,
					"numoutlets" : 5,
					"orientation" : 1,
					"outlettype" : [ "signal", "signal", "", "float", "list" ],
					"parameter_enable" : 1,
					"patching_rect" : [ 1921.4283607006073, 1011.904650926589966, 147.0, 47.0 ],
					"prototypename" : "M4L.live.gain~.H.extended",
					"saved_attribute_attributes" : 					{
						"valueof" : 						{
							"parameter_initial" : [ 0.0 ],
							"parameter_initial_enable" : 1,
							"parameter_linknames" : 1,
							"parameter_longname" : "live.gain~",
							"parameter_mmax" : 30.0,
							"parameter_mmin" : -70.0,
							"parameter_modmode" : 0,
							"parameter_shortname" : "Gain",
							"parameter_type" : 0,
							"parameter_unitstyle" : 4
						}

					}
,
					"varname" : "live.gain~"
				}

			}
 ],
		"lines" : [ 			{
				"patchline" : 				{
					"destination" : [ "obj-3", 1 ],
					"source" : [ "obj-1", 0 ]
				}

			}
, 			{
				"patchline" : 				{
					"destination" : [ "obj-3", 0 ],
					"source" : [ "obj-10", 0 ]
				}

			}
, 			{
				"patchline" : 				{
					"destination" : [ "obj-3", 0 ],
					"source" : [ "obj-11", 0 ]
				}

			}
, 			{
				"patchline" : 				{
					"destination" : [ "obj-3", 0 ],
					"source" : [ "obj-12", 0 ]
				}

			}
, 			{
				"patchline" : 				{
					"destination" : [ "obj-3", 0 ],
					"source" : [ "obj-14", 0 ]
				}

			}
, 			{
				"patchline" : 				{
					"destination" : [ "obj-1", 0 ],
					"source" : [ "obj-18", 0 ]
				}

			}
, 			{
				"patchline" : 				{
					"destination" : [ "obj-8", 0 ],
					"source" : [ "obj-19", 0 ]
				}

			}
, 			{
				"patchline" : 				{
					"destination" : [ "obj-3", 0 ],
					"source" : [ "obj-2", 0 ]
				}

			}
, 			{
				"patchline" : 				{
					"destination" : [ "obj-12", 0 ],
					"source" : [ "obj-23", 0 ]
				}

			}
, 			{
				"patchline" : 				{
					"destination" : [ "obj-26", 0 ],
					"source" : [ "obj-25", 0 ]
				}

			}
, 			{
				"patchline" : 				{
					"destination" : [ "obj-32", 0 ],
					"source" : [ "obj-26", 0 ]
				}

			}
, 			{
				"patchline" : 				{
					"destination" : [ "obj-14", 0 ],
					"source" : [ "obj-27", 0 ]
				}

			}
, 			{
				"patchline" : 				{
					"destination" : [ "obj-2", 0 ],
					"source" : [ "obj-29", 0 ]
				}

			}
, 			{
				"patchline" : 				{
					"destination" : [ "obj-5", 1 ],
					"order" : 0,
					"source" : [ "obj-3", 0 ]
				}

			}
, 			{
				"patchline" : 				{
					"destination" : [ "obj-5", 0 ],
					"order" : 1,
					"source" : [ "obj-3", 0 ]
				}

			}
, 			{
				"patchline" : 				{
					"destination" : [ "obj-10", 0 ],
					"source" : [ "obj-30", 0 ]
				}

			}
, 			{
				"patchline" : 				{
					"destination" : [ "obj-9", 0 ],
					"source" : [ "obj-31", 0 ]
				}

			}
, 			{
				"patchline" : 				{
					"destination" : [ "obj-5", 0 ],
					"source" : [ "obj-32", 0 ]
				}

			}
, 			{
				"patchline" : 				{
					"destination" : [ "obj-3", 0 ],
					"source" : [ "obj-33", 0 ]
				}

			}
, 			{
				"patchline" : 				{
					"destination" : [ "obj-3", 0 ],
					"source" : [ "obj-34", 0 ]
				}

			}
, 			{
				"patchline" : 				{
					"destination" : [ "obj-3", 0 ],
					"source" : [ "obj-35", 0 ]
				}

			}
, 			{
				"patchline" : 				{
					"destination" : [ "obj-3", 0 ],
					"source" : [ "obj-36", 0 ]
				}

			}
, 			{
				"patchline" : 				{
					"destination" : [ "obj-33", 0 ],
					"source" : [ "obj-38", 0 ]
				}

			}
, 			{
				"patchline" : 				{
					"destination" : [ "obj-35", 0 ],
					"source" : [ "obj-39", 0 ]
				}

			}
, 			{
				"patchline" : 				{
					"destination" : [ "obj-3", 0 ],
					"source" : [ "obj-4", 0 ]
				}

			}
, 			{
				"patchline" : 				{
					"destination" : [ "obj-34", 0 ],
					"source" : [ "obj-40", 0 ]
				}

			}
, 			{
				"patchline" : 				{
					"destination" : [ "obj-410", 0 ],
					"source" : [ "obj-409", 0 ]
				}

			}
, 			{
				"patchline" : 				{
					"destination" : [ "obj-36", 0 ],
					"source" : [ "obj-41", 0 ]
				}

			}
, 			{
				"patchline" : 				{
					"destination" : [ "obj-55", 0 ],
					"source" : [ "obj-410", 1 ]
				}

			}
, 			{
				"patchline" : 				{
					"destination" : [ "obj-409", 1 ],
					"source" : [ "obj-411", 0 ]
				}

			}
, 			{
				"patchline" : 				{
					"destination" : [ "obj-6", 1 ],
					"source" : [ "obj-5", 1 ]
				}

			}
, 			{
				"patchline" : 				{
					"destination" : [ "obj-6", 0 ],
					"source" : [ "obj-5", 0 ]
				}

			}
, 			{
				"patchline" : 				{
					"destination" : [ "obj-56", 0 ],
					"source" : [ "obj-55", 0 ]
				}

			}
, 			{
				"patchline" : 				{
					"destination" : [ "obj-1", 0 ],
					"source" : [ "obj-56", 0 ]
				}

			}
, 			{
				"patchline" : 				{
					"destination" : [ "obj-18", 1 ],
					"source" : [ "obj-7", 1 ]
				}

			}
, 			{
				"patchline" : 				{
					"destination" : [ "obj-18", 0 ],
					"source" : [ "obj-7", 0 ]
				}

			}
, 			{
				"patchline" : 				{
					"destination" : [ "obj-3", 0 ],
					"source" : [ "obj-8", 0 ]
				}

			}
, 			{
				"patchline" : 				{
					"destination" : [ "obj-3", 0 ],
					"source" : [ "obj-9", 0 ]
				}

			}
 ],
		"parameters" : 		{
			"obj-19" : [ "live.dial[2]", "Gain", 0 ],
			"obj-23" : [ "live.dial[6]", "Freq", 0 ],
			"obj-26" : [ "GainPresets", "GainPresets", 0 ],
			"obj-27" : [ "live.dial[8]", "Q", 0 ],
			"obj-29" : [ "live.dial[9]", "Pulsewidth", 0 ],
			"obj-3" : [ "rnbo~", "rnbo~", 0 ],
			"obj-30" : [ "live.dial[10]", "Pulsewidth", 0 ],
			"obj-31" : [ "gain", "Gain", 0 ],
			"obj-38" : [ "live.dial", "Time", 0 ],
			"obj-39" : [ "live.dial[11]", "sustain", 0 ],
			"obj-40" : [ "live.dial[5]", "Decay", 0 ],
			"obj-41" : [ "live.dial[13]", "Release", 0 ],
			"obj-5" : [ "live.gain~", "Gain", 0 ],
			"parameterbanks" : 			{
				"0" : 				{
					"index" : 0,
					"name" : "",
					"parameters" : [ "-", "-", "-", "-", "-", "-", "-", "-" ]
				}

			}
,
			"inherited_shortname" : 1
		}
,
		"dependency_cache" : [ 			{
				"name" : "synth.maxsnap",
				"bootpath" : "~/Documents/Max 9/Snapshots",
				"patcherrelativepath" : "../../../Documents/Max 9/Snapshots",
				"type" : "mx@s",
				"implicit" : 1
			}
, 			{
				"name" : "synth.rnbopat",
				"bootpath" : "~/Desktop/subsynth_maxmsp/subsynth",
				"patcherrelativepath" : ".",
				"type" : "RBOP",
				"implicit" : 1
			}
 ],
		"autosave" : 0
	}

}
